<svg xmlns="http://www.w3.org/2000/svg" viewBox="0 0 1000 1000"><style>.st2{fill:#C60018}</style><path fill="#F1D400" d="M0 0h1000v1000H0z"/><path fill="#2D3C6F" d="M112 305c0-107 4-94-20-94-4 0-6-2-6-7 0-13 17-3 45-6 32-3 75-6 75 36 0 53-72 34-76 40-1 1-1 6-1 9 0 30 0 36 10 36 5 0 16-4 16 5 0 12-14 5-34 5-13 0-21 2-25 2-10 0-10-8-7-12 3-3 6-2 10-1 6 4 13 0 13-13zm18-90c-2 3-1 11-1 40 0 8 11 6 19 6 23 0 41-3 41-25 0-17-11-25-32-25-17 0-26 1-27 4zm168 112c0-17 2 8-31 8-25 0-36-13-37-29-2-37 4-63-10-61-6 1-11 0-11-6 0-7 8-7 14-6 13 2 22-5 22 7 0 30-2 57 2 70 5 14 26 15 37 9 11-7 12-17 12-40 0-10 2-33-5-33s-13 1-13-6c0-11 12-5 24-6 16-2 9 4 9 33 0 51-2 57 10 54 6-1 11 0 11 6 0 11-13 5-24 6-6 0-10 0-10-6zm83-98c19 0 22 10 22 6 0-5 2-7 6-7 10 0 6 10 6 20 0 9 4 22-5 22-13 0 0-14-13-23-9-6-22-6-31 0-10 7-10 24 11 27 20 3 45 5 45 30 0 32-45 41-68 23 0 6 0 11-7 11-12 0-6-13-6-24 0-8-2-11-2-15 0-9 10-7 12-5 3 6-3 16 10 25 9 6 28 9 38 0 10-8 11-26-15-28-22-2-42-7-42-29 2-22 19-33 39-33zm87 13c5-5 10-8 15-10 11-5 31-4 43 7 13 12 10 25 10 59 0 31 5 22 13 22 5 0 7 2 7 7 0 11-17 5-31 5-9 0-14 2-18 2-11 0-11-13-1-13 4 0 6 2 9 2 7 0 6-13 7-22 0-17 1-38-4-47-8-15-34-13-43 0-8 12-4 34-6 42 0 9-1 27 6 27 3 0 16-6 16 5s-14 6-30 6c-14 0-28 6-28-6 0-10 14-5 16-5 6 0 6-21 6-31 0-79 1-83-11-81-15 3-14-12-3-12 2 0 8 1 15 1 15-3 13-14 12 42zm208 41c5 0 7 3 7 9 0 15-2 25-5 30-10 16-38 15-47 1-6-9-5-24-5-73 0-5-3-4-10-4-10 0-9-14-1-14s11 1 11-4c0-21-2-28 8-28 9 0 7 7 7 29 0 4 2 3 25 3 5 0 8 2 8 7s-3 7-8 7c-24 0-25-1-25 4 0 50-4 70 14 70 26 1 5-37 21-37zm48-41c5-5 10-8 15-10 11-5 31-4 43 7 13 12 10 25 10 59 0 31 5 22 13 22 5 0 7 2 7 7 0 11-17 5-31 5-9 0-14 2-18 2-11 0-11-13-1-13 4 0 6 2 9 2 7 0 6-13 7-22 0-17 1-38-4-47-8-15-34-13-43 0-8 12-4 34-6 42 0 9-1 27 6 27 3 0 16-6 16 5s-14 6-30 6c-14 0-28 6-28-6 0-10 14-5 16-5 6 0 6-21 6-31 0-79 1-83-11-81-15 3-14-12-3-12 2 0 8 1 15 1 15-3 13-14 12 42zm187 31c0 10-1 11-7 11-68 0-65 0-67 1-2 2-1 17 8 27 11 12 27 13 38 5 8-5 9-11 11-18s14-7 14 3c0 39-89 55-89-19 1-72 92-69 92-10zm-73-5c0 4 2 3 52 3 3 0 4-1 4-3 0-21-26-36-47-18-5 5-9 11-9 18z"/><path d="M130 433c13 0 25 5 36 15-2-7-2-14 5-14s8 6 7 13c-4 25-1 21-1 36 0 6-2 9-7 9-14 0 1-22-16-37-12-11-40-13-54 7-15 21-14 64 0 84 15 21 44 19 55 7 10-11 10-31 6-35-6-7-27 3-27-9 0-14 18-1 55-7 19-3 15 13 6 13-8 0-15-2-15 19 0 33 4 40-6 40-8 0-7-7-7-12 1-11 1-5-7 2-16 14-53 17-73-9-30-35-21-122 43-122zm173 79c0 10-1 11-7 11-68 0-65 0-67 1-2 2-1 17 8 27 11 12 27 13 38 5 8-5 9-11 11-18s14-7 14 3c0 39-89 55-89-19 1-72 92-70 92-10zm-72-5c0 4 2 3 52 3 3 0 4-1 4-3 0-21-26-36-47-18-6 5-9 11-9 18zm117-30v6c19-24 56-17 65 4 4 9 3 16 3 56 0 23 4 16 14 16 9 0 9 13-2 13-5 0-12-2-21-2-14 0-27 6-27-5 0-4 2-6 7-6 14 0 14 13 14-47 0-11 0-20-9-26-11-7-30-6-38 7-6 10-5 27-5 53 0 7 0 15 6 15 4 0 15-5 15 5 0 11-14 5-28 5s-29 6-29-5c0-10 12-5 16-5 9 0 6-13 6-65 0-6-1-12-6-12-4 0-16 4-16-5s11-6 18-6c8-1 17-5 17 4zm187 35c0 10-1 11-7 11-68 0-65 0-67 1-2 2-1 17 8 27 11 12 27 13 38 5 8-5 9-11 11-18s14-7 14 3c0 39-89 55-89-19 1-72 92-70 92-10zm-73-5c0 4 2 3 52 3 3 0 4-1 4-3 0-21-26-36-47-18-6 5-9 11-9 18zm117-30c0 16 0-9 28-9 18 0 31 11 31 28 0 25-27 24-27 10 0-4 4-9 11-8 5-9-5-18-16-18-21 0-24 19-24 40 0 33-2 42 12 39 6-1 10 0 10 6 0 11-15 6-27 6-19 0-32 5-32-6 0-7 7-7 14-5 4 1 8 1 8-9 0-50 2-67-7-67-4 0-15 5-15-5s14-6 21-6c5-1 13-5 13 4zm154 96c-11 0-18-5-20-14-7 10-17 15-32 15-46 0-45-50-12-57 10-2 30-3 37-7 6-4 8-18-1-25-14-11-42 1-34 7 3 2 4 10 0 13-12 11-32-11-8-29 18-13 63-14 63 27v51c2 9 14 12 14-6 0-9-1-16 6-16 8 0 7 11 7 22 0 13-7 19-20 19zm-22-39c0-21 2-12-9-9-13 4-40 0-40 20-1 23 48 24 49-11zm111-12c5 0 7 3 7 9 0 15-2 25-5 30-10 16-38 15-47 1-6-9-5-24-5-73 0-5-3-4-10-4-10 0-9-14-1-14s11 1 11-4c0-21-2-28 8-28 9 0 7 7 7 29 0 4 2 3 25 3 5 0 8 2 8 7s-3 7-8 7c-24 0-25-1-25 4 0 50-4 70 14 70 25 1 4-37 21-37zm107-10c0 10-1 11-7 11-68 0-65 0-67 1-2 2-1 17 8 27 11 12 27 13 38 5 8-5 9-11 11-18s14-7 14 3c0 39-89 55-89-19 2-72 92-70 92-10zm-72-5c0 4 2 3 52 3 3 0 4-1 4-3 0-21-26-36-47-18-6 5-9 11-9 18z"/><path d="M217 722c18-24 48-17 61-1 17 20 15 58-1 77-16 20-50 21-63 0 1 6 3 14-6 14-11 0-6-5-6-112 0-18-6-11-15-11-4 0-7-2-7-6 0-11 15-4 28-6 16-5 9-1 9 45zm1 18c-2 10-2 36 2 45 8 18 34 19 46 4 11-15 10-45 0-58-14-20-43-11-48 9zm168 64c0-17 2 8-31 8-25 0-36-13-37-29-2-37 4-63-10-61-6 1-11 0-11-6 0-7 8-7 14-6 13 2 22-5 22 7 0 30-2 57 2 70 5 14 26 15 37 9 11-7 12-17 12-40 0-10 2-33-5-33s-13 1-13-6c0-11 12-5 24-6 16-2 9 5 9 33 0 51-2 57 10 54 6-1 11 0 11 6 0 11-13 5-24 6-6 1-10 0-10-6zm104-43c5 0 7 3 7 9 0 15-2 25-5 30-10 16-38 15-47 1-6-9-5-24-5-73 0-5-3-4-10-4-10 0-9-14-1-14s11 1 11-4c0-21-2-28 8-28 9 0 7 7 7 29 0 4 2 3 25 3 5 0 8 2 8 7s-3 7-8 7c-24 0-25-1-25 4 0 50-4 70 14 70 26 1 5-37 21-37zm80 0c5 0 7 3 7 9 0 15-2 25-5 30-10 16-38 15-47 1-6-9-5-24-5-73 0-5-3-4-10-4-10 0-9-14-1-14s11 1 11-4c0-21-2-28 8-28 9 0 7 7 7 29 0 4 2 3 25 3 5 0 8 2 8 7s-3 7-8 7c-24 0-25-1-25 4 0 50-4 70 14 70 26 1 4-37 21-37z" class="st2"/><path d="M633 813c-62 0-62-106 1-106 64-1 62 106-1 106zm1-93c-35 0-36 51-23 69s53 17 53-30c0-26-10-39-30-39z" class="st2"/><path d="M726 716v6c19-24 56-17 65 4 4 9 3 16 3 56 0 23 4 16 14 16 9 0 9 13-2 13-5 0-12-2-21-2-14 0-27 6-27-5 0-4 2-6 7-6 14 0 14 13 14-47 0-11 0-20-9-26-11-7-30-6-38 7-6 10-5 27-5 53 0 7 0 15 6 15 4 0 15-5 15 5 0 11-14 5-28 5s-29 6-29-5c0-10 12-5 16-5 9 0 6-13 6-65 0-6-1-12-6-12-4 0-16 4-16-5s11-6 18-6c8-1 17-5 17 4z" class="st2"/></svg>
